<svg xmlns="http://www.w3.org/2000/svg" height="100%" width="100%" id="flogo-diagram_0_graph" class="sprotty-graph" style="border-bottom-style:solid;border-left-style:solid;border-right-style:solid;border-top-style:solid;display:block;font-family:&quot;Helvetica Neue&quot;, Helvetica, Arial, sans-serif;font-size:13px;min-height:auto;min-width:auto;flex-basis:0%;flex-grow:1;perspective-origin:0px 785.5px;transform-origin:0px 785.5px;" version="1.1" viewBox="12 12 267.484375 169"><g transform="scale(1) translate(0,0)"><g class="sprotty-flows" id="flogo-diagram_0_flows" transform="translate(12, 12)"><rect x="0" y="0" width="52.109375" height="35" style="fill:rgb(250, 235, 215);"/><text class="label sprotty-label" id="flogo-diagram_0_label-flows" transform="translate(10, 10) translate(1, 12)" style="stroke-width:0px;">flows</text></g><g class="sprotty-triggers" id="flogo-diagram_0_triggers" transform="translate(84.109375, 12)"><rect x="0" y="0" width="195.375" height="169" style="fill:rgb(245, 245, 245);"/><text class="label sprotty-label" id="flogo-diagram_0_label-triggers" transform="translate(10, 10) translate(1, 12)" style="stroke-width:0px;">triggers</text><g class="sprotty-trigger" id="flogo-diagram_0_trigger1" transform="translate(3446, 0)"><rect x="0" y="0" width="87.6875" height="169" style="fill:rgb(240, 255, 255);"/><text class="label sprotty-label" id="flogo-diagram_0_label-triggertrigger1" transform="translate(10, 10) translate(1, 12)" style="stroke-width:0px;">trigger1</text><g class="sprotty-action" id="flogo-diagram_0_trigger1-action0" transform="translate(12, 12)"><rect x="0" y="0" width="63.6875" height="35" style="fill:rgb(250, 235, 215);"/><text class="label sprotty-label" id="flogo-diagram_0_label-trigger1-action0" transform="translate(10, 10) translate(1, 12)" style="stroke-width:0px;">action0</text></g><g class="sprotty-action" id="flogo-diagram_0_trigger1-action1" transform="translate(12, 67)"><rect x="0" y="0" width="63.6875" height="35" style="fill:rgb(250, 235, 215);"/><text class="label sprotty-label" id="flogo-diagram_0_label-trigger1-action1" transform="translate(10, 10) translate(1, 12)" style="stroke-width:0px;">action1</text></g><g class="sprotty-action" id="flogo-diagram_0_trigger1-action2" transform="translate(12, 122)"><rect x="0" y="0" width="63.6875" height="35" style="fill:rgb(250, 235, 215);"/><text class="label sprotty-label" id="flogo-diagram_0_label-trigger1-action2" transform="translate(10, 10) translate(1, 12)" style="stroke-width:0px;">action2</text></g></g><g class="sprotty-trigger" id="flogo-diagram_0_trigger2" transform="translate(3338.3125, 0)"><rect x="0" y="0" width="87.6875" height="114" style="fill:rgb(240, 255, 255);"/><text class="label sprotty-label" id="flogo-diagram_0_label-triggertrigger2" transform="translate(10, 10) translate(1, 12)" style="stroke-width:0px;">trigger2</text><g class="sprotty-action" id="flogo-diagram_0_trigger2-action0" transform="translate(12, 12)"><rect x="0" y="0" width="63.6875" height="35" style="fill:rgb(250, 235, 215);"/><text class="label sprotty-label" id="flogo-diagram_0_label-trigger2-action0" transform="translate(10, 10) translate(1, 12)" style="stroke-width:0px;">action0</text></g><g class="sprotty-action" id="flogo-diagram_0_trigger2-action1" transform="translate(12, 67)"><rect x="0" y="0" width="63.6875" height="35" style="fill:rgb(250, 235, 215);"/><text class="label sprotty-label" id="flogo-diagram_0_label-trigger2-action1" transform="translate(10, 10) translate(1, 12)" style="stroke-width:0px;">action1</text></g></g></g></g></svg>